<svg xmlns="http://www.w3.org/2000/svg" data-name="Слой 1" viewBox="0 0 100 125" x="0px" y="0px"><defs><style>.cls-1{fill:none;}</style></defs><title>аррр_Монтажная область 1_Монтажная область 1</title><path class="cls-1" d="M37.12624,69.74241l.04832.36611q1.79451-.08145,3.589-.163l-.01006-.11493Z"/><path class="cls-1" d="M48.50082,81.58076l.01188.35258,1.70728.04149-.0322-.43792Z"/><path class="cls-1" d="M49.0573,75.69533l.043.30784q1.8475-.24772,3.695-.49541l-.026-.14469Z"/><path class="cls-1" d="M33.1621,72.84777l2.5659.06238.02784-.19265q-1.29255-.03142-2.58512-.06283Z"/><path class="cls-1" d="M58.07991,71.61888l.00275.21374,8.55075.18745-.00156-.21371Z"/><path class="cls-1" d="M60.14268,70.10214l-3.96952.16961,3.97593.08716Z"/><path class="cls-1" d="M21.62591,70.0544l3.66091.089-.00485-.27953C24.03128,69.929,22.78058,69.99421,21.62591,70.0544Z"/><path class="cls-1" d="M74.75375,68.33575c3.39773-.04607,15.41981-.58776,18.24254-.71863.181-1.486.3093-39.82283.33464-45.12355.00736-1.53974-.416-2.17784-1.53828-2.35487-2.22652.09926-4.45695.10375-6.68776.06337q-11.29942.1947-22.59338-.34064c-24.564-.21125-56.24864-.40795-56.20182.19267.14774,1.8953.69585,40.33937.80118,46.07543.02113,1.15087.49246,1.58971,1.52294,1.59307,1.02956.00336,7.18265.21381,9.22957.21525,2.496.00169,14.24613-.20861,17.62474-.23686,3.51009-.02931,14.10624.10251,15.8965.13427C57.31012,67.94042,72.89158,68.361,74.75375,68.33575Z"/><path d="M97.97144,65.56652c-.11557-4.94808-.27967-9.895-.42422-14.84244-.05325-1.82275-.12354-3.64532-.1494-5.46846-.04378-3.08161-.0785-6.16358-.07862-9.24547-.00005-2.40158.115-4.80411.07789-7.20465-.04931-3.18813-.16405-6.37528-.24273-9.563.46814-.395-.27317-4.03292-1.519-3.97373C92.23839,15.43007,12.99189,13.5699,6.57518,14.26c-.02419.00261-2.885.00028-3.25763.004-.88741.00876-1.02943.50971-1.005,1.28874.0977,3.125.14227,26.01534.1024,26.33752-.12675,1.0241.148,22.87793-.41491,28.2413a1.64578,1.64578,0,0,0,.49227,1.1963c1.811.085,6.60987.10857,8.44972.09424,3.12874-.02427,6.32947-.66567,9.36782.64815,1.3785.59609,2.7261,1.26363,4.10353,1.86238a3.37983,3.37983,0,0,0,1.29175.31637c2.08144.00428,4.16286-.0501,6.24444-.07314,3.417-.03773,6.83419-.06732,10.37689-.10156.5849,2.6176.16614,5.02086.14021,7.40876-.00232.20807-20.32974.75563-21.41949.84524-.45253.03719-1.16273.4531-1.25063.81837-.42669,1.7733.41488,2.80192,2.21793,2.74527,3.358-.10543,60.12054-.24791,60.13659-.24772.83037-.20709,1.642-.51966,1.62925-1.53839a2.16615,2.16615,0,0,0-1.66353-2.08351c-1.87524-.07713-4.25612-.1776-5.39941-.18648-2.106-.01643-20.95179.22227-22.82113.09358.04387-1.80441.05939-3.49995.13837-5.1926a11.31163,11.31163,0,0,1,.33207-2.13368A.79707.79707,0,0,1,54.985,74.188c3.36417-.04524,6.72936-.10143,10.09309-.05956,2.12932.02645,4.2555.24766,6.38525.31459,2.38635.075,4.67-.204,6.54186-1.96635a3.09783,3.09783,0,0,1,1.74038-.76622c2.23839-.18715,9.09711-.491,10.28043-.51954,2.00122-.04834,7.59491-.99368,7.73793-1.59763A16.05048,16.05048,0,0,0,97.97144,65.56652ZM21.62592,70.05437c1.15464-.06016,2.40538-.12535,3.65605-.19054l.00481.27953C24.05216,70.11333,22.81747,70.08331,21.62592,70.05437Zm14.102,2.85576q-1.28284-.03124-2.56585-.06241l.0086-.19307q1.29255.03138,2.5851.06284Zm1.44662-2.80166-.04835-.36605q1.81359.044,3.62732.08814l.01.11491Q38.96908,70.027,37.17459,70.10847ZM48.5127,81.9333l-.01187-.35258q.84351-.02184,1.68693-.04383.01614.219.03221.43791Zm.58762-5.93018-.043-.30784q1.85609-.16608,3.71208-.33222l.026.14469Zm8.93191-4.15256L58.03,71.63677q4.27578.104,8.55148.20792l.00108.21371Q62.30737,71.9544,58.03223,71.85056ZM56.12645,70.2851l3.97-.16012.00578.25678Zm36.86986-2.668c-2.82277.1309-14.84486.67253-18.24258.71868-1.86217.02516-17.4436-.39534-23.36907-.50053-1.7903-.03173-12.38642-.16357-15.89655-.13428-3.37859.02824-15.12874.23859-17.62474.2369-2.0469-.00145-8.2-.21194-9.22955-.21531-1.03048-.00329-1.50181-.44218-1.52295-1.593-.10532-5.73608-.65345-44.1802-.80116-46.07545-.04681-.60061,31.63775-.4039,56.2018-.19267q11.28744.53827,22.59337.34059c2.23085.04039,4.46127.03589,6.68781-.06334,1.1222.177,1.54558.81515,1.53825,2.35489C93.30561,27.79425,93.17726,66.13109,92.99631,67.61709Z"/><text x="0" y="115" fill="#000000" font-size="5px" font-weight="bold" font-family="'Helvetica Neue', Helvetica, Arial-Unicode, Arial, Sans-serif">Created by Tatyana</text><text x="0" y="120" fill="#000000" font-size="5px" font-weight="bold" font-family="'Helvetica Neue', Helvetica, Arial-Unicode, Arial, Sans-serif">from the Noun Project</text></svg>